<svg width="12" height="12" viewBox="0 0 12 12" fill="none" xmlns="http://www.w3.org/2000/svg">
<path d="M11.1952 0.804869C11.4219 1.03163 11.4219 1.39929 11.1952 1.62605L10.5606 2.2606C10.3339 2.48737 9.96622 2.48737 9.73946 2.2606C9.5127 2.03384 9.5127 1.66618 9.73946 1.43942L10.374 0.804869C10.6007 0.578105 10.9684 0.578105 11.1952 0.804869Z" fill="#E03FAB"/>
<path d="M8.03348 0.00891871C8.34929 -0.046769 8.65045 0.16411 8.70614 0.479931L8.86196 1.36368C8.91765 1.6795 8.70678 1.98067 8.39096 2.03636C8.07515 2.09205 7.77399 1.88117 7.71831 1.56535L7.56248 0.681594C7.50679 0.365774 7.71767 0.0646064 8.03348 0.00891871Z" fill="#E03FAB"/>
<path d="M11.5201 3.29395C11.8359 3.34964 12.0468 3.65081 11.9911 3.96663C11.9354 4.28245 11.6342 4.49333 11.3184 4.43764L10.4347 4.28181C10.1189 4.22612 9.90801 3.92495 9.9637 3.60913C10.0194 3.29331 10.3205 3.08243 10.6364 3.13812L11.5201 3.29395Z" fill="#E03FAB"/>
<path d="M8.99294 3.00714C9.2197 3.2339 9.2197 3.60156 8.99294 3.82832L8.59167 4.22961C9.84633 5.88459 9.71876 8.25326 8.20896 9.76311C6.55981 11.4123 3.88601 11.4123 2.23686 9.76311C0.587713 8.11391 0.587713 5.44004 2.23686 3.79085C3.74677 2.2809 6.1156 2.15341 7.77055 3.40838L8.17178 3.00714C8.39854 2.78038 8.76618 2.78038 8.99294 3.00714Z" fill="#E03FAB"/>
</svg>
